<svg xmlns="http://www.w3.org/2000/svg" width="59.408" height="59.533" viewBox="0 0 59.408 59.533"><g transform="translate(-0.539)"><g transform="translate(0.539 0)"><path d="M58.389,43.691l-8.308-8.308a5.526,5.526,0,0,0-9.2,2.077,5.654,5.654,0,0,1-6.528,3.561c-5.934-1.484-13.946-9.2-15.429-15.429a5.378,5.378,0,0,1,3.561-6.528,5.526,5.526,0,0,0,2.077-9.2L16.256,1.558a5.926,5.926,0,0,0-8.011,0L2.607,7.2C-3.031,13.13,3.2,28.856,17.146,42.8S46.818,63.275,52.752,57.34L58.389,51.7A5.926,5.926,0,0,0,58.389,43.691Z" transform="translate(-0.539 0)"/></g></g></svg>