<svg xmlns="http://www.w3.org/2000/svg" width="47.038" height="47.038" viewBox="0 0 47.038 47.038"><defs><style>.a{fill:#fff;}</style></defs><path class="a" d="M23.519,0A23.519,23.519,0,1,0,47.038,23.519,23.546,23.546,0,0,0,23.519,0Zm1.53,37.473c-1.117.186-3.341.652-4.47.745a2.752,2.752,0,0,1-2.407-1.253,2.939,2.939,0,0,1-.356-2.692l4.446-12.225H17.639c0-2.547,1.907-4.42,4.35-5.139a17.019,17.019,0,0,1,4.469-.741,3.545,3.545,0,0,1,2.407,1.253,2.939,2.939,0,0,1,.356,2.692L24.776,32.339H29.4a5.2,5.2,0,0,1-4.348,5.135ZM26.459,14.7a2.94,2.94,0,1,1,2.94-2.94,2.94,2.94,0,0,1-2.94,2.94Z"/></svg>