<svg xmlns="http://www.w3.org/2000/svg" xmlns:xlink="http://www.w3.org/1999/xlink" width="25.047" height="25.047" viewBox="0 0 25.047 25.047"><defs><style>.a{fill:url(#a);}.b{fill:url(#b);}.c{fill:#fff;}</style><radialGradient id="a" cx="0.065" cy="0.978" r="1.27" gradientTransform="translate(0)" gradientUnits="objectBoundingBox"><stop offset="0.09" stop-color="#fa8f21"/><stop offset="0.78" stop-color="#d82d7e"/></radialGradient><radialGradient id="b" cx="0.693" cy="0.946" r="1.117" gradientTransform="translate(0)" gradientUnits="objectBoundingBox"><stop offset="0.64" stop-color="#8c3aaa" stop-opacity="0"/><stop offset="1" stop-color="#8c3aaa"/></radialGradient></defs><path class="a" d="M6.351,24.959a8.433,8.433,0,0,1-2.837-.526A4.746,4.746,0,0,1,1.758,23.29,4.71,4.71,0,0,1,.615,21.534,8.433,8.433,0,0,1,.089,18.7C.015,17.087,0,16.6,0,12.525S.016,7.963.089,6.351A8.48,8.48,0,0,1,.614,3.514,4.765,4.765,0,0,1,1.757,1.757,4.716,4.716,0,0,1,3.514.614,8.433,8.433,0,0,1,6.351.089C7.961.015,8.445,0,12.523,0S17.085.016,18.7.089a8.48,8.48,0,0,1,2.837.526A4.728,4.728,0,0,1,23.29,1.757a4.731,4.731,0,0,1,1.143,1.757,8.433,8.433,0,0,1,.526,2.837c.074,1.612.089,2.094.089,6.173s-.015,4.562-.089,6.173a8.471,8.471,0,0,1-.526,2.837,5.058,5.058,0,0,1-2.9,2.9,8.433,8.433,0,0,1-2.837.526c-1.61.074-2.094.089-6.173.089s-4.562-.014-6.172-.089"/><path class="b" d="M6.351,24.959a8.433,8.433,0,0,1-2.837-.526A4.746,4.746,0,0,1,1.758,23.29,4.71,4.71,0,0,1,.615,21.534,8.433,8.433,0,0,1,.089,18.7C.015,17.087,0,16.6,0,12.525S.016,7.963.089,6.351A8.48,8.48,0,0,1,.614,3.514,4.765,4.765,0,0,1,1.757,1.757,4.716,4.716,0,0,1,3.514.614,8.433,8.433,0,0,1,6.351.089C7.961.015,8.445,0,12.523,0S17.085.016,18.7.089a8.48,8.48,0,0,1,2.837.526A4.728,4.728,0,0,1,23.29,1.757a4.731,4.731,0,0,1,1.143,1.757,8.433,8.433,0,0,1,.526,2.837c.074,1.612.089,2.094.089,6.173s-.015,4.562-.089,6.173a8.471,8.471,0,0,1-.526,2.837,5.058,5.058,0,0,1-2.9,2.9,8.433,8.433,0,0,1-2.837.526c-1.61.074-2.094.089-6.173.089s-4.562-.014-6.172-.089"/><path class="c" d="M442.054,448.825a3.1,3.1,0,1,1,3.1,3.1,3.1,3.1,0,0,1-3.1-3.1m-1.677,0a4.778,4.778,0,1,0,4.778-4.778,4.778,4.778,0,0,0-4.778,4.778m8.629-4.968a1.117,1.117,0,1,0,1.117-1.116h0a1.117,1.117,0,0,0-1.117,1.116M441.4,456.4a5.143,5.143,0,0,1-1.728-.32,3.081,3.081,0,0,1-1.766-1.766,5.137,5.137,0,0,1-.32-1.728c-.045-.981-.054-1.275-.054-3.76s.01-2.779.054-3.76a5.176,5.176,0,0,1,.32-1.728,3.079,3.079,0,0,1,1.766-1.766,5.137,5.137,0,0,1,1.728-.32c.981-.045,1.275-.054,3.759-.054s2.779.01,3.76.054a5.176,5.176,0,0,1,1.728.32,3.079,3.079,0,0,1,1.766,1.766,5.14,5.14,0,0,1,.32,1.728c.045.982.054,1.275.054,3.76s-.009,2.779-.054,3.76a5.162,5.162,0,0,1-.32,1.728,3.081,3.081,0,0,1-1.766,1.766,5.139,5.139,0,0,1-1.728.32c-.981.045-1.275.054-3.76.054s-2.779-.009-3.759-.054m-.077-16.823a6.823,6.823,0,0,0-2.259.432,4.758,4.758,0,0,0-2.722,2.722,6.826,6.826,0,0,0-.432,2.259c-.046.992-.056,1.309-.056,3.836s.01,2.844.056,3.836a6.826,6.826,0,0,0,.432,2.259,4.758,4.758,0,0,0,2.722,2.722,6.828,6.828,0,0,0,2.259.432c.993.045,1.309.056,3.836.056s2.844-.01,3.836-.056a6.824,6.824,0,0,0,2.259-.432,4.758,4.758,0,0,0,2.722-2.722,6.807,6.807,0,0,0,.432-2.259c.045-.993.056-1.309.056-3.836s-.01-2.844-.056-3.836a6.823,6.823,0,0,0-.432-2.259,4.759,4.759,0,0,0-2.721-2.722,6.815,6.815,0,0,0-2.259-.432c-.992-.045-1.309-.056-3.836-.056s-2.844.01-3.837.056" transform="translate(-432.606 -436.248)"/></svg>