<svg xmlns="http://www.w3.org/2000/svg" xmlns:xlink="http://www.w3.org/1999/xlink" width="25.09" height="25.09" viewBox="0 0 25.09 25.09"><defs><style>.a{fill:url(#a);}</style><linearGradient id="a" x1="-1.971" y1="2.61" x2="-1.264" y2="3.317" gradientUnits="objectBoundingBox"><stop offset="0" stop-color="#2489be"/><stop offset="1" stop-color="#0575b3"/></linearGradient></defs><path class="a" d="M19.57,7.025A12.545,12.545,0,1,0,32.115,19.57,12.545,12.545,0,0,0,19.57,7.025Zm-3.347,18.61H13.469v-8.9h2.754Zm-1.39-10.064a1.642,1.642,0,1,1,1.629-1.642A1.635,1.635,0,0,1,14.833,15.571ZM26.545,25.635H23.8V20.964c0-1.281-.487-2-1.5-2-1.1,0-1.678.745-1.678,2v4.671H17.984v-8.9h2.642v1.2a3.1,3.1,0,0,1,2.682-1.47c1.887,0,3.238,1.152,3.238,3.536v5.635Z" transform="translate(-7.025 -7.025)"/></svg>