<svg xmlns="http://www.w3.org/2000/svg" width="57.581" height="43.186" viewBox="0 0 57.581 43.186"><g transform="translate(0 -64)"><g transform="translate(0 64)"><g transform="translate(0 0)"><path d="M7.338,67.5c7.9,6.693,21.77,18.468,25.845,22.139a2.408,2.408,0,0,0,3.483,0C40.746,85.973,54.613,74.2,62.516,67.5a1.2,1.2,0,0,0,.169-1.655A4.764,4.764,0,0,0,58.919,64H10.935a4.763,4.763,0,0,0-3.765,1.849A1.2,1.2,0,0,0,7.338,67.5Z" transform="translate(-6.136 -64)"/><path d="M56.886,126.523a1.194,1.194,0,0,0-1.279.173c-8.764,7.43-19.949,16.953-23.469,20.124a4.858,4.858,0,0,1-6.7,0C21.69,143.439,9.129,132.76,1.975,126.7A1.2,1.2,0,0,0,0,127.612V157.78a4.8,4.8,0,0,0,4.8,4.8H52.783a4.8,4.8,0,0,0,4.8-4.8V127.612A1.2,1.2,0,0,0,56.886,126.523Z" transform="translate(0 -119.393)"/></g></g></g></svg>