<svg xmlns="http://www.w3.org/2000/svg" width="20.203" height="24.216" viewBox="0 0 20.203 24.216"><defs><style>.a{fill:#f1b787;}</style></defs><g transform="translate(0 0)"><path class="a" d="M92.864,11.665a5.643,5.643,0,0,0,4.124-1.709A5.643,5.643,0,0,0,98.7,5.832a5.644,5.644,0,0,0-1.709-4.124,5.831,5.831,0,0,0-8.248,0,5.644,5.644,0,0,0-1.709,4.124,5.643,5.643,0,0,0,1.709,4.124A5.645,5.645,0,0,0,92.864,11.665Zm0,0" transform="translate(-82.916)"/><path class="a" d="M20.154,254.24a14.406,14.406,0,0,0-.2-1.53,12.056,12.056,0,0,0-.376-1.538,7.6,7.6,0,0,0-.632-1.435A5.414,5.414,0,0,0,18,248.494a4.205,4.205,0,0,0-1.37-.861,4.735,4.735,0,0,0-1.749-.316,1.775,1.775,0,0,0-.948.4c-.284.185-.617.4-.987.637a5.658,5.658,0,0,1-1.278.563,4.962,4.962,0,0,1-3.126,0,5.645,5.645,0,0,1-1.277-.563c-.367-.235-.7-.449-.988-.637a1.773,1.773,0,0,0-.948-.4,4.729,4.729,0,0,0-1.749.317,4.2,4.2,0,0,0-1.37.861,5.415,5.415,0,0,0-.953,1.243,7.614,7.614,0,0,0-.632,1.435,12.084,12.084,0,0,0-.376,1.538,14.356,14.356,0,0,0-.2,1.531c-.032.463-.048.944-.048,1.43a4.021,4.021,0,0,0,1.194,3.042,4.3,4.3,0,0,0,3.077,1.123h11.66a4.3,4.3,0,0,0,3.077-1.123A4.019,4.019,0,0,0,20.2,255.67c0-.488-.017-.969-.049-1.43Zm0,0" transform="translate(0 -235.619)"/></g></svg>