<svg xmlns="http://www.w3.org/2000/svg" width="25.735" height="19.643" viewBox="0 0 25.735 19.643"><defs><style>.a{fill:#5da8dc;stroke:#5da8dc;stroke-width:0.5px;}</style></defs><g transform="translate(0.25 0.25)"><path class="a" d="M16.861,0V0h1.183l.432.081a4.882,4.882,0,0,1,.785.206,5.776,5.776,0,0,1,.683.3,6.584,6.584,0,0,1,.6.346,3.64,3.64,0,0,1,.478.37.7.7,0,0,0,.653.1,9.209,9.209,0,0,0,.956-.266q.512-.17,1.013-.382t.61-.27l.114-.064,0-.006L24.393.4l.023-.011.023-.011.023-.011,0-.006.007,0,.007,0,0-.006.023-.006.023,0,0,.032L24.519.4l-.011.032L24.5.467l-.011.021L24.473.51l-.011.032a.7.7,0,0,0-.023.085,3.459,3.459,0,0,1-.216.425,5.278,5.278,0,0,1-.512.754,3.809,3.809,0,0,1-.551.578q-.246.2-.325.276a.965.965,0,0,1-.193.149l-.114.07L22.5,2.89l-.023.011,0,.006-.007,0-.007,0,0,.006-.023.011-.023.011,0,.006-.007,0-.007,0,0,.006,0,.006-.007,0-.007,0,0,.006h.114l.637-.127a12.049,12.049,0,0,0,1.217-.308l.614-.191.068-.021.034-.011.023-.011.023-.011.023-.011.023-.011.046-.006.046,0v.042l-.011,0-.011.006,0,.006-.007,0-.007,0,0,.006,0,.006-.007,0-.007,0,0,.006,0,.006-.007,0-.011.021-.011.021-.007,0-.289.361a3.037,3.037,0,0,1-.307.361q-.023.006-.064.064a6.281,6.281,0,0,1-.482.474,11.215,11.215,0,0,1-.869.737.985.985,0,0,0-.432.8q-.007.472-.052,1.067a12.652,12.652,0,0,1-.171,1.285,14.469,14.469,0,0,1-.387,1.562,13.578,13.578,0,0,1-.637,1.7,12.9,12.9,0,0,1-.785,1.487q-.41.659-.751,1.115t-.694.86q-.353.4-.892.909t-.592.552q-.052.047-.446.348t-.842.608q-.448.3-.824.5t-.906.461a11.16,11.16,0,0,1-1.142.484q-.614.223-1.3.414a12.554,12.554,0,0,1-1.32.3q-.637.106-1.445.181l-.808.074v.011H7.213v-.011l-.193-.011q-.193-.011-.319-.021t-.944-.117q-.819-.106-1.286-.212t-1.388-.4a14.065,14.065,0,0,1-1.577-.6q-.653-.3-.819-.382t-.369-.2l-.2-.117,0-.006-.007,0-.007,0,0-.006L.068,17.04l-.023-.011,0-.006-.007,0-.007,0,0-.006,0-.006L.011,17H0v-.042l.023,0,.023.006.1.011q.1.011.557.032t.967,0q.512-.021,1.047-.1a12.521,12.521,0,0,0,1.263-.255,9.789,9.789,0,0,0,1.338-.429q.608-.251.865-.374a8.545,8.545,0,0,0,.778-.45l.523-.329,0-.006.007,0,.007,0,0-.006,0-.006.007,0,.007,0,0-.006.023-.006.023,0,0-.021.007-.021.007,0,0-.006-.182-.011-.353-.021a3.639,3.639,0,0,1-.535-.1,5.383,5.383,0,0,1-.785-.255,6.212,6.212,0,0,1-.819-.4,4.032,4.032,0,0,1-.576-.389q-.175-.153-.455-.433a4.351,4.351,0,0,1-.482-.58,5.106,5.106,0,0,1-.391-.686l-.189-.387-.011-.032-.011-.032L2.8,11.622l0-.021.034,0,.034.006.25.032a5.955,5.955,0,0,0,.785.021,6.5,6.5,0,0,0,.74-.042q.2-.032.25-.042l.046-.011.057-.011.057-.011,0-.006.007,0,.007,0,0-.006-.046-.011-.046-.011-.046-.011-.046-.011-.046-.011q-.045-.011-.159-.042T4.073,11.2a4.819,4.819,0,0,1-.8-.393,5.458,5.458,0,0,1-.564-.419,6.2,6.2,0,0,1-.585-.591,4.223,4.223,0,0,1-.569-.839,4.9,4.9,0,0,1-.375-.914,4.636,4.636,0,0,1-.164-.882L.978,6.714l.023,0,.023.006.023.011.023.011.023.011.023.011.353.149a4.682,4.682,0,0,0,.876.255q.523.106.626.117l.1.011h.2l0-.006-.007,0-.007,0,0-.006,0-.006-.007,0-.007,0,0-.006-.023-.011-.023-.011,0-.006-.007,0-.007,0,0-.006L3.14,7.2l-.023-.011,0-.006-.2-.136A2.911,2.911,0,0,1,2.526,6.7q-.2-.212-.41-.446a3.444,3.444,0,0,1-.364-.5,5.877,5.877,0,0,1-.337-.676,4.562,4.562,0,0,1-.266-.822,4.384,4.384,0,0,1-.1-.818,4.811,4.811,0,0,1,.023-.691A4.249,4.249,0,0,1,1.206,2.1a4.835,4.835,0,0,1,.3-.765L1.7.935,1.707.9,1.718.871l.007,0,0-.006,0-.006.007,0,.007,0,0,.006,0,.006.007,0,.007,0,0,.006,0,.006.007,0L1.8.914l.011.021.007,0,0,.006.307.319q.307.319.728.712a4.186,4.186,0,0,0,.466.408.327.327,0,0,1,.114.1,4.554,4.554,0,0,0,.455.376q.387.3,1.013.691t1.388.776a14.033,14.033,0,0,0,1.638.691q.876.308,1.229.4t1.206.244q.853.149,1.286.191t.592.049l.159,0,0-.032-.007-.032-.046-.266a4.667,4.667,0,0,1-.046-.744,4.561,4.561,0,0,1,.08-.882,4.952,4.952,0,0,1,.239-.818,4.228,4.228,0,0,1,.312-.665,6.527,6.527,0,0,1,.405-.567,4.715,4.715,0,0,1,.649-.659,4.8,4.8,0,0,1,.91-.606,6.128,6.128,0,0,1,.944-.4,4.653,4.653,0,0,1,.728-.181,2.693,2.693,0,0,0,.3-.049Z"/></g></svg>